<svg width="576" height="512" viewBox="0 0 576 512" fill="none" xmlns="http://www.w3.org/2000/svg">
<path d="M416 192C416 103.6 322.9 32 208 32C93.1 32 0 103.6 0 192C0 226.3 14.1 257.9 38 284C24.6 314.2 2.5 338.2 2.2 338.5C0 340.8 -0.6 344.2 0.7 347.2C2 350.2 4.8 352 8 352C44.6 352 74.9 339.7 96.7 327C128.9 342.7 167 352 208 352C322.9 352 416 280.4 416 192ZM538 412C561.9 386 576 354.3 576 320C576 253.1 522.5 195.8 446.7 171.9C447.6 178.5 448 185.2 448 192C448 297.9 340.3 384 208 384C197.2 384 186.7 383.2 176.3 382.1C207.8 439.6 281.8 480 368 480C409 480 447.1 470.8 479.3 455C501.1 467.7 531.4 480 568 480C571.2 480 574.1 478.1 575.3 475.2C576.6 472.3 576 468.9 573.8 466.5C573.5 466.2 551.4 442.3 538 412Z" fill="white"/>
</svg>
