<svg width="20" height="20" viewBox="0 0 20 20" fill="none" xmlns="http://www.w3.org/2000/svg">
<g clip-path="url(#clip0)">
<path d="M1.42857 18.1249C1.42857 18.6222 1.65434 19.0991 2.0562 19.4507C2.45806 19.8023 3.00311 19.9999 3.57143 19.9999H16.4286C16.9969 19.9999 17.5419 19.8023 17.9438 19.4507C18.3457 19.0991 18.5714 18.6222 18.5714 18.1249V4.99988H1.42857V18.1249ZM13.5714 8.12488C13.5714 7.95912 13.6467 7.80015 13.7806 7.68294C13.9146 7.56573 14.0963 7.49988 14.2857 7.49988C14.4752 7.49988 14.6568 7.56573 14.7908 7.68294C14.9247 7.80015 15 7.95912 15 8.12488V16.8749C15 17.0406 14.9247 17.1996 14.7908 17.3168C14.6568 17.434 14.4752 17.4999 14.2857 17.4999C14.0963 17.4999 13.9146 17.434 13.7806 17.3168C13.6467 17.1996 13.5714 17.0406 13.5714 16.8749V8.12488ZM9.28571 8.12488C9.28571 7.95912 9.36097 7.80015 9.49492 7.68294C9.62888 7.56573 9.81056 7.49988 10 7.49988C10.1894 7.49988 10.3711 7.56573 10.5051 7.68294C10.639 7.80015 10.7143 7.95912 10.7143 8.12488V16.8749C10.7143 17.0406 10.639 17.1996 10.5051 17.3168C10.3711 17.434 10.1894 17.4999 10 17.4999C9.81056 17.4999 9.62888 17.434 9.49492 17.3168C9.36097 17.1996 9.28571 17.0406 9.28571 16.8749V8.12488ZM5 8.12488C5 7.95912 5.07525 7.80015 5.20921 7.68294C5.34316 7.56573 5.52485 7.49988 5.71429 7.49988C5.90373 7.49988 6.08541 7.56573 6.21936 7.68294C6.35332 7.80015 6.42857 7.95912 6.42857 8.12488V16.8749C6.42857 17.0406 6.35332 17.1996 6.21936 17.3168C6.08541 17.434 5.90373 17.4999 5.71429 17.4999C5.52485 17.4999 5.34316 17.434 5.20921 17.3168C5.07525 17.1996 5 17.0406 5 16.8749V8.12488ZM19.2857 1.24988H13.9286L13.5089 0.519416C13.42 0.36325 13.2831 0.231886 13.1135 0.140103C12.944 0.04832 12.7485 -0.00024035 12.5491 -0.000115222H7.44643C7.24749 -0.000784383 7.05236 0.0475949 6.8834 0.13948C6.71443 0.231365 6.57846 0.363039 6.49107 0.519416L6.07143 1.24988H0.714286C0.524845 1.24988 0.343164 1.31573 0.209209 1.43294C0.0752549 1.55015 0 1.70912 0 1.87488L0 3.12488C0 3.29064 0.0752549 3.44962 0.209209 3.56683C0.343164 3.68404 0.524845 3.74988 0.714286 3.74988H19.2857C19.4752 3.74988 19.6568 3.68404 19.7908 3.56683C19.9247 3.44962 20 3.29064 20 3.12488V1.87488C20 1.70912 19.9247 1.55015 19.7908 1.43294C19.6568 1.31573 19.4752 1.24988 19.2857 1.24988Z" fill="#FC5E84"/>
</g>
<defs>
<clipPath id="clip0">
<rect width="20" height="20" fill="white"/>
</clipPath>
</defs>
</svg>
