<svg width="15" height="15" viewBox="0 0 15 15" fill="none" xmlns="http://www.w3.org/2000/svg">
<g clip-path="url(#clip0)">
<path d="M14.868 2.98022L10.3188 7.50012L14.868 12.02C14.9503 11.8481 15.0002 11.6581 15.0002 11.4552V3.54504C15.0002 3.3421 14.9503 3.15211 14.868 2.98022Z" fill="black"/>
<path d="M13.6815 2.22656H1.31823C1.11529 2.22656 0.925303 2.27646 0.753418 2.35869L6.56776 8.14374C7.08187 8.65784 7.91788 8.65784 8.43198 8.14374L14.2463 2.35869C14.0744 2.27646 13.8845 2.22656 13.6815 2.22656Z" fill="black"/>
<path d="M0.132129 2.98022C0.0498926 3.15211 0 3.3421 0 3.54504V11.4552C0 11.6581 0.0498926 11.8482 0.132129 12.02L4.68132 7.50012L0.132129 2.98022Z" fill="black"/>
<path d="M9.69714 8.12158L9.0534 8.76532C8.19679 9.62193 6.80293 9.62193 5.94632 8.76532L5.30261 8.12158L0.753418 12.6415C0.925303 12.7237 1.11529 12.7736 1.31823 12.7736H13.6815C13.8845 12.7736 14.0744 12.7237 14.2463 12.6415L9.69714 8.12158Z" fill="black"/>
</g>
<defs>
<clipPath id="clip0">
<rect width="15" height="15" fill="white"/>
</clipPath>
</defs>
</svg>
