<svg width="15" height="15" viewBox="0 0 15 15" fill="none" xmlns="http://www.w3.org/2000/svg">
<g clip-path="url(#clip0)">
<path d="M11.008 9.69759C11.9158 8.45886 12.3224 6.92305 12.1464 5.39742C11.9704 3.87179 11.2249 2.46885 10.059 1.46928C8.8931 0.469708 7.39275 -0.0527774 5.85815 0.00635363C4.32354 0.0654847 2.86785 0.701871 1.7823 1.7882C0.696757 2.87452 0.0614125 4.33067 0.00337956 5.86531C-0.0546534 7.39996 0.468905 8.89993 1.46931 10.0651C2.46971 11.2303 3.87319 11.9748 5.39895 12.1497C6.9247 12.3246 8.46022 11.9169 9.6983 11.0082H9.69736C9.72549 11.0457 9.75549 11.0813 9.78924 11.116L13.3986 14.7254C13.5744 14.9013 13.8129 15.0002 14.0616 15.0003C14.3103 15.0004 14.5488 14.9017 14.7247 14.7259C14.9006 14.5501 14.9995 14.3116 14.9996 14.0629C14.9997 13.8142 14.901 13.5757 14.7252 13.3998L11.1158 9.79041C11.0823 9.75648 11.0462 9.72514 11.008 9.69666V9.69759ZM11.2499 6.09384C11.2499 6.77097 11.1165 7.44147 10.8574 8.06706C10.5982 8.69264 10.2184 9.26106 9.73963 9.73986C9.26083 10.2187 8.69241 10.5985 8.06683 10.8576C7.44124 11.1167 6.77074 11.2501 6.09362 11.2501C5.41649 11.2501 4.74599 11.1167 4.1204 10.8576C3.49482 10.5985 2.9264 10.2187 2.4476 9.73986C1.96879 9.26106 1.58899 8.69264 1.32986 8.06706C1.07074 7.44147 0.937365 6.77097 0.937365 6.09384C0.937365 4.72632 1.48061 3.41481 2.4476 2.44783C3.41458 1.48084 4.72609 0.937594 6.09362 0.937594C7.46114 0.937594 8.77265 1.48084 9.73963 2.44783C10.7066 3.41481 11.2499 4.72632 11.2499 6.09384V6.09384Z" fill="white"/>
</g>
<defs>
<clipPath id="clip0">
<rect width="15" height="15" fill="white"/>
</clipPath>
</defs>
</svg>
