<svg width="18" height="18" viewBox="0 0 18 18" fill="none" xmlns="http://www.w3.org/2000/svg">
<path fill-rule="evenodd" clip-rule="evenodd" d="M6.75 3.9375C6.75 3.78832 6.80926 3.64524 6.91475 3.53975C7.02024 3.43426 7.16332 3.375 7.3125 3.375H16.3125C16.4617 3.375 16.6048 3.43426 16.7102 3.53975C16.8157 3.64524 16.875 3.78832 16.875 3.9375V14.0625C16.875 14.2117 16.8157 14.3548 16.7102 14.4602C16.6048 14.5657 16.4617 14.625 16.3125 14.625H7.3125C7.16332 14.625 7.02024 14.5657 6.91475 14.4602C6.80926 14.3548 6.75 14.2117 6.75 14.0625V11.8125C6.75 11.6633 6.69074 11.5202 6.58525 11.4148C6.47976 11.3093 6.33668 11.25 6.1875 11.25C6.03832 11.25 5.89524 11.3093 5.78975 11.4148C5.68426 11.5202 5.625 11.6633 5.625 11.8125V14.0625C5.625 14.5101 5.80279 14.9393 6.11926 15.2557C6.43572 15.5722 6.86495 15.75 7.3125 15.75H16.3125C16.7601 15.75 17.1893 15.5722 17.5057 15.2557C17.8222 14.9393 18 14.5101 18 14.0625V3.9375C18 3.48995 17.8222 3.06072 17.5057 2.74426C17.1893 2.42779 16.7601 2.25 16.3125 2.25H7.3125C6.86495 2.25 6.43572 2.42779 6.11926 2.74426C5.80279 3.06072 5.625 3.48995 5.625 3.9375V6.1875C5.625 6.33668 5.68426 6.47976 5.78975 6.58525C5.89524 6.69074 6.03832 6.75 6.1875 6.75C6.33668 6.75 6.47976 6.69074 6.58525 6.58525C6.69074 6.47976 6.75 6.33668 6.75 6.1875V3.9375Z" fill="#6C727C"/>
<path fill-rule="evenodd" clip-rule="evenodd" d="M13.3358 9.39823C13.3881 9.34598 13.4297 9.2839 13.4581 9.21557C13.4864 9.14723 13.501 9.07397 13.501 8.99998C13.501 8.92599 13.4864 8.85273 13.4581 8.78439C13.4297 8.71605 13.3881 8.65398 13.3358 8.60173L9.96075 5.22673C9.90845 5.17443 9.84636 5.13294 9.77803 5.10464C9.7097 5.07634 9.63646 5.06177 9.5625 5.06177C9.48854 5.06177 9.4153 5.07634 9.34697 5.10464C9.27864 5.13294 9.21655 5.17443 9.16425 5.22673C9.11195 5.27903 9.07047 5.34111 9.04216 5.40945C9.01386 5.47778 8.99929 5.55102 8.99929 5.62498C8.99929 5.69894 9.01386 5.77218 9.04216 5.84051C9.07047 5.90884 9.11195 5.97093 9.16425 6.02323L11.5796 8.43748H1.6875C1.53832 8.43748 1.39524 8.49674 1.28975 8.60223C1.18426 8.70772 1.125 8.85079 1.125 8.99998C1.125 9.14916 1.18426 9.29224 1.28975 9.39773C1.39524 9.50322 1.53832 9.56248 1.6875 9.56248H11.5796L9.16425 11.9767C9.11195 12.029 9.07047 12.0911 9.04216 12.1594C9.01386 12.2278 8.99929 12.301 8.99929 12.375C8.99929 12.4489 9.01386 12.5222 9.04216 12.5905C9.07047 12.6588 9.11195 12.7209 9.16425 12.7732C9.21655 12.8255 9.27864 12.867 9.34697 12.8953C9.4153 12.9236 9.48854 12.9382 9.5625 12.9382C9.63646 12.9382 9.7097 12.9236 9.77803 12.8953C9.84636 12.867 9.90845 12.8255 9.96075 12.7732L13.3358 9.39823V9.39823Z" fill="#6C727C"/>
</svg>
