<svg width="18" height="18" viewBox="0 0 18 18" fill="none" xmlns="http://www.w3.org/2000/svg">
<path d="M8.52632 18C9.87073 18 10.9613 16.9928 10.9613 15.75H6.09137C6.09137 16.9928 7.1819 18 8.52632 18ZM16.7249 12.7368C15.9895 12.0069 14.6135 10.909 14.6135 7.3125C14.6135 4.58086 12.5398 2.39414 9.7436 1.85766V1.125C9.7436 0.503789 9.19852 0 8.52632 0C7.85411 0 7.30904 0.503789 7.30904 1.125V1.85766C4.51287 2.39414 2.43915 4.58086 2.43915 7.3125C2.43915 10.909 1.06315 12.0069 0.327756 12.7368C0.0993728 12.9635 -0.00187687 13.2346 2.63169e-05 13.5C0.00421333 14.0766 0.494094 14.625 1.22187 14.625H15.8308C16.5585 14.625 17.0488 14.0766 17.0526 13.5C17.0545 13.2346 16.9533 12.9632 16.7249 12.7368Z" fill="#6C727C"/>
</svg>
